<svg xmlns="http://www.w3.org/2000/svg" version="1.1" xmlns:xlink="http://www.w3.org/1999/xlink" xmlns:svgjs="http://svgjs.dev/svgjs" width="1440" height="250" preserveAspectRatio="none" viewBox="0 0 1440 250"><g mask="url(&quot;#SvgjsMask1006&quot;)" fill="none"><path d="M31 250L281 0L392 0L142 250z" fill="url(&quot;#SvgjsLinearGradient1007&quot;)"></path><path d="M280.6 250L530.6 0L764.6 0L514.6 250z" fill="url(&quot;#SvgjsLinearGradient1007&quot;)"></path><path d="M497.20000000000005 250L747.2 0L1102.7 0L852.7 250z" fill="url(&quot;#SvgjsLinearGradient1007&quot;)"></path><path d="M731.8000000000001 250L981.8000000000001 0L1182.8000000000002 0L932.8000000000001 250z" fill="url(&quot;#SvgjsLinearGradient1007&quot;)"></path><path d="M1421 250L1171 0L1003 0L1253 250z" fill="url(&quot;#SvgjsLinearGradient1008&quot;)"></path><path d="M1167.4 250L917.4000000000001 0L617.4000000000001 0L867.4000000000001 250z" fill="url(&quot;#SvgjsLinearGradient1008&quot;)"></path><path d="M932.8 250L682.8 0L561.3 0L811.3 250z" fill="url(&quot;#SvgjsLinearGradient1008&quot;)"></path><path d="M685.1999999999999 250L435.19999999999993 0L106.69999999999993 0L356.69999999999993 250z" fill="url(&quot;#SvgjsLinearGradient1008&quot;)"></path><path d="M1276.71935679415 250L1440 86.71935679415003L1440 250z" fill="url(&quot;#SvgjsLinearGradient1007&quot;)"></path><path d="M0 250L163.28064320584997 250L 0 86.71935679415003z" fill="url(&quot;#SvgjsLinearGradient1008&quot;)"></path></g><defs><mask id="SvgjsMask1006"><rect width="1440" height="250" fill="#ffffff"></rect></mask><linearGradient x1="0%" y1="100%" x2="100%" y2="0%" id="SvgjsLinearGradient1007"><stop stop-color="rgba(79, 108, 182, 1)" offset="0"></stop><stop stop-opacity="0" stop-color="rgba(79, 108, 182, 1)" offset="0.66"></stop></linearGradient><linearGradient x1="100%" y1="100%" x2="0%" y2="0%" id="SvgjsLinearGradient1008"><stop stop-color="rgba(79, 108, 182, 1)" offset="0"></stop><stop stop-opacity="0" stop-color="rgba(79, 108, 182, 1)" offset="0.66"></stop></linearGradient></defs></svg>